<?xml version="1.0" encoding="UTF-8"?>
<svg id="Ebene_1" xmlns="http://www.w3.org/2000/svg" version="1.1" viewBox="0 0 59.4 58.9">
  <!-- Generator: Adobe Illustrator 29.2.1, SVG Export Plug-In . SVG Version: 2.1.0 Build 116)  -->
  <defs>
    <style>
      .st0 {
        fill: #004f9f;
      }
    </style>
  </defs>
  <path class="st0" d="M9.3,9h40.5s.4,0,.4,0v40.9s0,0,0,0H9.2s0,0,0,0V9s0,0,0,0ZM16.9,43l7.8-2.2c7.8,3.9,17.5-.4,19.3-9.1,2-10-7.3-18.4-17-15.5-7.9,2.4-11.7,11.6-7.9,18.9l-2.2,7.9Z"/>
  <path class="st0" d="M20.5,39.2l1.3-4.5c-3.8-6-.8-14.1,6.1-16.1,5.7-1.7,11.9,1.7,13.4,7.4,2.6,9.6-7.8,17.3-16.1,12.1-1.4.2-2.8.9-4.1,1.2s-.3,0-.5,0ZM37.4,31.5c-.7-.2-2.6-1.5-3.2-1.5s-.8.9-1.1,1.2c-.3.4-.5.6-1,.4-.9-.3-2.7-1.5-3.3-2.2s-1.3-1.7-1.2-2c0-.6,1.3-1,1-2.1-.4-.5-.9-2.7-1.5-2.9-1-.3-1.8.3-2.3,1.1-1.3,2.3.2,4.7,1.7,6.5,1.3,1.5,2.9,2.9,4.7,3.7,1.7.8,3.4,1.3,5.1.3,1-.6,1.2-1.4,1.1-2.6Z"/>
</svg>