<?xml version="1.0" encoding="UTF-8"?>
<svg id="Ebene_1" xmlns="http://www.w3.org/2000/svg" version="1.1" viewBox="0 0 90.4 18.9">
  <!-- Generator: Adobe Illustrator 29.2.1, SVG Export Plug-In . SVG Version: 2.1.0 Build 116)  -->
  <defs>
    <style>
      .st0 {
        fill: #e30612;
      }
    </style>
  </defs>
  <polygon class="st0" points="13.6 2.7 16 6.9 20.7 7.9 17.5 11.4 18 16.2 13.6 14.2 9.2 16.2 9.8 11.4 6.5 7.9 11.2 6.9 13.6 2.7"/>
  <polygon class="st0" points="29.4 2.7 31.8 6.9 36.5 7.9 33.3 11.4 33.8 16.2 29.4 14.2 25 16.2 25.5 11.4 22.3 7.9 27 6.9 29.4 2.7"/>
  <polygon class="st0" points="45.2 2.7 47.6 6.9 52.3 7.9 49 11.4 49.6 16.2 45.2 14.2 40.8 16.2 41.3 11.4 38.1 7.9 42.8 6.9 45.2 2.7"/>
  <polygon class="st0" points="61 2.7 63.3 6.9 68.1 7.9 64.8 11.4 65.3 16.2 61 14.2 56.6 16.2 57.1 11.4 53.9 7.9 58.6 6.9 61 2.7"/>
  <path class="st0" d="M83.8,7.8l-4.7-1-2.4-4.1h0c0,0-2.4,4.1-2.4,4.1l-4.7,1,3.2,3.6-.5,4.8,4.4-2h0l4.3,2-.5-4.8,3.2-3.6ZM77.7,13.7h0s-.9-.5-.9-.5l-1.2.5.2-7.8.9-1.8h0c0,0,.9,1.9.9,1.9v.2c.1,0,.7,1.1.7,1.1l.2.3h.4c0,.1,3.2.7,3.2.7l-2.2,2.4-.2.3v.4s.4,3.2.4,3.2l-2.3-1.1Z"/>
</svg>