<?xml version="1.0" encoding="UTF-8"?>
<svg id="Ebene_1" xmlns="http://www.w3.org/2000/svg" version="1.1" viewBox="0 0 59.4 58.9">
  <!-- Generator: Adobe Illustrator 29.2.1, SVG Export Plug-In . SVG Version: 2.1.0 Build 116)  -->
  <defs>
    <style>
      .st0 {
        fill: #e30612;
      }
    </style>
  </defs>
  <g id="xc8mN4">
    <g>
      <path class="st0" d="M50.2,9v40.9H9.2V9s40.9,0,40.9,0ZM23.9,15.6c-5.2.4-7.8,3.1-8.1,8.3s-.2,8.1,0,11.4c.3,4.9,3,7.7,7.9,8.1,3.3.2,8.4.2,11.7,0,5.1-.3,7.8-3,8.2-8.1.2-3.3.2-8.2,0-11.5-.3-5.3-3.2-7.9-8.4-8.2-3.3-.2-8-.2-11.3,0Z"/>
      <path class="st0" d="M25,18c3.4-.2,7.9-.2,11.3.1,2.7.3,4.5,2.2,4.7,4.9.4,3.6.4,9.4,0,13-.3,2.7-2,4.6-4.7,4.9s-9.2.4-13.1,0c-2.8-.2-4.6-2.1-4.9-4.9-.4-3.6-.3-8,0-11.7.1-1.5,0-2.2.7-3.6,1.3-2.3,3.6-2.5,6-2.7ZM36.9,20.4c-2.4.4-1.3,4.3,1.1,3,1.6-.9.7-3.4-1.1-3ZM29.4,22.3c-8.5.7-9.1,12.5-1.1,14.1s10.5-4.8,7.9-10.1c-1.2-2.5-4-4.2-6.8-4Z"/>
      <path class="st0" d="M28.7,24.8c4.6-.7,7.5,4.2,4.5,7.7-2.1,2.5-6.3,1.9-7.7-1.1s.3-6.2,3.2-6.7Z"/>
    </g>
  </g>
</svg>